# xmcd
#
# Track frame offsets:
#	150
#	15912
#	29262
#	45308
#	63261
#	77327
#	91264
#	107085
#	125423
#	142303
#	160866
#	174611
#	192143
#	207037
#	225331
#	236891
#	253198
#	267668
#
# Disc length: 3804 seconds
# Revision: 0
# Processed by: cddbd v1.5.2PL0 Copyright (c) Steve Scherf et al.
# Submitted via: dBpowerAMP V12.0
#
DISCID=e90eda12
DTITLE=Various Artist - Country Radio October 2008
DYEAR=2008
DGENRE=Country
TTITLE0=Trisha Yearwood - They Call It Falling For A Reason
TTITLE1=Chris Caigle - Never Ever Gone
TTITLE2=Josh Turner - Everything Is Fine
TTITLE3=Brad Paisley Feat Keith Urban - Start A Band
TTITLE4=Deric Ruttan - Lovin You Is Killin Me
TTITLE5=Jake Owen - Don't Think I Can't Love You
TTITLE6=Laura Bryna - Hometown Heroes
TTITLE7=Sugarland - Already Gone
TTITLE8=Keith Urban - Somebody Needs A Hug
TTITLE9=Rio Grand - God's Got A Bigger Plan
TTITLE10=Trent Willmon - Cold Beer and A Fishin Pole
TTITLE11=Billy Currington - Don't
TTITLE12=Dierks Bentley - Feel That Fire
TTITLE13=Billy Ray Cyrus - Somebody Said A Prayer
TTITLE14=Justin Moore - Back That Thing Up
TTITLE15=Bailey Grey - Beach Weekend
TTITLE16=Willie Mack - Headlights and Tailpipes
TTITLE17=Jason Blaine - Good Day To Get Gone
EXTD=
EXTT0=
EXTT1=
EXTT2=
EXTT3=
EXTT4=
EXTT5=
EXTT6=
EXTT7=
EXTT8=
EXTT9=
EXTT10=
EXTT11=
EXTT12=
EXTT13=
EXTT14=
EXTT15=
EXTT16=
EXTT17=
PLAYORDER=
